<?xml version="1.0" encoding="UTF-8"?> <svg xmlns="http://www.w3.org/2000/svg" width="260" height="37.103" viewBox="0 0 260 37.103"><g id="Grupo_211" data-name="Grupo 211" transform="translate(-1175.519 216.297)"><g id="Grupo_106" data-name="Grupo 106" transform="translate(1175.519 -216.297)"><path id="Trazado_44" data-name="Trazado 44" d="M1560.544-204.833c6.9,0,6.909-11.464,0-11.464h-25.83v3.4h22.169a2.254,2.254,0,0,1,2.25,2.329,2.245,2.245,0,0,1-2.25,2.324h-17.875a4.511,4.511,0,0,0-4.294,4.7v6.52h7.811v-5.887a1.847,1.847,0,0,1,1.758-1.924h4l8.588,7.811h9.352l-8.714-7.812Z" transform="translate(-1434.238 216.297)" fill="#fff"></path><path id="Trazado_45" data-name="Trazado 45" d="M1201.1-216.244l-8.454,13.654-8.454-13.654h-8.672l12.07,19.266H1197.7l12.07-19.266Z" transform="translate(-1175.519 216.26)" fill="#fff"></path><path id="Trazado_46" data-name="Trazado 46" d="M1287.359-216.27l-11.454,19.3h7.762l9.177-15.9,4.859,8.177h-5.023a4.5,4.5,0,0,0-3.115,1.573l-1.429,1.615H1299.6l2.7,4.537h7.761l-11.465-19.3Z" transform="translate(-1247.824 216.278)" fill="#fff"></path><path id="Trazado_47" data-name="Trazado 47" d="M2003.03-216.27H1991.8l-11.454,19.3h7.762l9.178-15.9,4.859,8.177h-5.023a4.5,4.5,0,0,0-3.115,1.573l-1.429,1.615h11.462l2.7,4.537h7.761Z" transform="translate(-1755.214 216.278)" fill="#fff"></path><path id="Trazado_48" data-name="Trazado 48" d="M1430.313-202.054c-.954,0-3.176-3.133-3.8-3.885-1.061-1.269-5.017-6.112-5.017-6.112-2.185-2.662-3.706-4.231-6.881-4.231l-8.733,0v19.284h7.891v-14.676c.789,0,1.9-.171,3.986,2.374,3.455,4.209,7.949,9.623,7.949,9.623a7.361,7.361,0,0,0,6.258,2.663h6.241v-19.284h-7.889Z" transform="translate(-1341.44 216.294)" fill="#fff"></path><path id="Trazado_49" data-name="Trazado 49" d="M1792.442-202.054c-.954,0-3.176-3.133-3.8-3.885-1.061-1.269-5.017-6.112-5.017-6.112-2.185-2.662-3.706-4.231-6.881-4.231l-8.733,0v19.284h7.891v-14.676c.789,0,1.9-.171,3.986,2.374,3.455,4.209,7.949,9.623,7.949,9.623a7.361,7.361,0,0,0,6.257,2.663h6.241v-19.284h-7.889Z" transform="translate(-1602.272 216.294)" fill="#fff"></path><path id="Trazado_50" data-name="Trazado 50" d="M1922.329-216.289h-.008l.008-.008h-31.715l.007.008h-.007v3.326h11.642V-197h8.431v-15.965h11.642Z" transform="translate(-1690.583 216.297)" fill="#fff"></path><path id="Trazado_51" data-name="Trazado 51" d="M1657.894-197.022h27.9V-200.3h-20.542v-4.735h16.84v-3.251h-16.84v-4.735h20.542V-216.3h-27.9Z" transform="translate(-1522.961 216.297)" fill="#fff"></path></g><g id="Grupo_107" data-name="Grupo 107" transform="translate(1277.828 -185.935)"><path id="Trazado_52" data-name="Trazado 52" d="M1544.137-116.4l-2.869,6.3h1.766l.527-1.269h3.2l.527,1.269h1.767l-2.869-6.3Zm-.089,3.876.567-1.357a7.9,7.9,0,0,0,.535-1.455h.024a7.936,7.936,0,0,0,.535,1.455l.567,1.357Z" transform="translate(-1541.268 116.627)" fill="#63a3d8"></path><path id="Trazado_53" data-name="Trazado 53" d="M1584.175-114.409c0-.958-.535-2-2.382-2h-3.922v6.3h1.637v-2.226h1.661l1.37,2.226h1.848l-1.5-2.431A1.905,1.905,0,0,0,1584.175-114.409Zm-2.755.931h-1.913v-1.73h1.913c.786,0,1.021.417,1.021.851S1582.205-113.478,1581.42-113.478Z" transform="translate(-1567.631 116.627)" fill="#63a3d8"></path><path id="Trazado_54" data-name="Trazado 54" d="M1616.809-114.409c0-.958-.535-2-2.382-2H1610.5v6.3h1.637v-2.226h1.661l1.37,2.226h1.848l-1.5-2.431A1.905,1.905,0,0,0,1616.809-114.409Zm-2.755.931h-1.913v-1.73h1.913c.786,0,1.021.417,1.021.851S1614.839-113.478,1614.053-113.478Z" transform="translate(-1591.137 116.627)" fill="#63a3d8"></path><path id="Trazado_55" data-name="Trazado 55" d="M1644.773-112.715h4.036v-1.171h-4.036v-1.26h4.174v-1.26h-5.81v6.3H1649v-1.26h-4.23Z" transform="translate(-1614.641 116.627)" fill="#63a3d8"></path><path id="Trazado_56" data-name="Trazado 56" d="M1679.663-113.026v.905h-.032a3.446,3.446,0,0,0-.454-.71l-2.99-3.575h-1.75v6.3h1.483v-4.329h.032a4.1,4.1,0,0,0,.462.718l3.1,3.61h1.629v-6.3h-1.483Z" transform="translate(-1637.185 116.627)" fill="#63a3d8"></path><path id="Trazado_57" data-name="Trazado 57" d="M1713.215-116.4h-3.655v6.3h3.623a3.211,3.211,0,0,0,3.5-3.255C1716.684-115.332,1715.33-116.4,1713.215-116.4Zm-.243,5.082H1711.2v-3.867h1.767a1.77,1.77,0,0,1,1.985,1.863A1.831,1.831,0,0,1,1712.972-111.323Z" transform="translate(-1662.484 116.627)" fill="#63a3d8"></path><path id="Trazado_58" data-name="Trazado 58" d="M1743.353-116.4l-2.869,6.3h1.766l.527-1.269h3.2l.527,1.269h1.767l-2.869-6.3Zm-.089,3.876.568-1.357a7.889,7.889,0,0,0,.535-1.455h.024a7.962,7.962,0,0,0,.535,1.455l.567,1.357Z" transform="translate(-1684.758 116.627)" fill="#63a3d8"></path><path id="Trazado_59" data-name="Trazado 59" d="M1781.431-112.609a4.676,4.676,0,0,0-.2.692h-.016a4.758,4.758,0,0,0-.195-.674l-1.483-3.814h-2.447v6.3h1.434v-4a6.486,6.486,0,0,0-.065-1.082h.041c.065.257.17.648.308,1.029l1.6,4.054h1.54l1.653-4.063c.146-.355.3-.842.348-1.02h.032a7.108,7.108,0,0,0-.081,1.082v4h1.508v-6.3H1782.9Z" transform="translate(-1711.122 116.627)" fill="#63a3d8"></path><rect id="Rectángulo_35" data-name="Rectángulo 35" width="1.637" height="6.298" transform="translate(77.395 0.222)" fill="#63a3d8"></rect><path id="Trazado_60" data-name="Trazado 60" d="M1836.57-112.715h4.036v-1.171h-4.036v-1.26h4.174v-1.26h-5.811v6.3h5.867v-1.26h-4.23Z" transform="translate(-1752.787 116.627)" fill="#63a3d8"></path><path id="Trazado_61" data-name="Trazado 61" d="M1871.459-113.026v.905h-.032a3.462,3.462,0,0,0-.453-.71l-2.991-3.575h-1.75v6.3h1.483v-4.329h.032a4.075,4.075,0,0,0,.462.718l3.1,3.61h1.629v-6.3h-1.483Z" transform="translate(-1775.331 116.627)" fill="#63a3d8"></path><path id="Trazado_62" data-name="Trazado 62" d="M1898.981-115.013h2.391v4.905h1.637v-4.905h2.391v-1.393h-6.419Z" transform="translate(-1798.919 116.627)" fill="#63a3d8"></path><path id="Trazado_63" data-name="Trazado 63" d="M1931.791-117.13c-2.342,0-3.858,1.322-3.858,3.371s1.516,3.371,3.858,3.371,3.858-1.322,3.858-3.371S1934.125-117.13,1931.791-117.13Zm0,5.411a1.976,1.976,0,0,1-2.131-2.04,1.971,1.971,0,0,1,2.131-2.04,1.969,1.969,0,0,1,2.123,2.04A1.969,1.969,0,0,1,1931.791-111.719Z" transform="translate(-1819.773 117.13)" fill="#63a3d8"></path><path id="Trazado_64" data-name="Trazado 64" d="M1985.83-116.4h-3.906v6.3h1.637v-2h2.237a2.182,2.182,0,0,0,2.44-2.209C1988.237-115.615,1987.337-116.4,1985.83-116.4Zm-.405,3.1h-1.864V-115.2h1.872c.688,0,1.078.328,1.078.931S1986.106-113.309,1985.425-113.309Z" transform="translate(-1858.661 116.627)" fill="#63a3d8"></path><path id="Trazado_65" data-name="Trazado 65" d="M2017.709-113.114a1.665,1.665,0,0,1-1.734,1.818,1.651,1.651,0,0,1-1.742-1.818V-116.4h-1.645v3.459c0,1.827,1.208,3.06,3.387,3.06s3.371-1.224,3.371-3.042V-116.4h-1.637Z" transform="translate(-1880.747 116.627)" fill="#63a3d8"></path><path id="Trazado_66" data-name="Trazado 66" d="M2053.379-114.409c0-.958-.535-2-2.383-2h-3.922v6.3h1.637v-2.226h1.661l1.369,2.226h1.848l-1.5-2.431A1.906,1.906,0,0,0,2053.379-114.409Zm-2.756.931h-1.912v-1.73h1.912c.786,0,1.021.417,1.021.851S2051.41-113.478,2050.624-113.478Z" transform="translate(-1905.587 116.627)" fill="#63a3d8"></path><path id="Trazado_67" data-name="Trazado 67" d="M2081.276-117.13c-2.342,0-3.857,1.322-3.857,3.371s1.515,3.371,3.857,3.371,3.858-1.322,3.858-3.371S2083.61-117.13,2081.276-117.13Zm0,5.411a1.975,1.975,0,0,1-2.131-2.04,1.971,1.971,0,0,1,2.131-2.04,1.969,1.969,0,0,1,2.123,2.04A1.969,1.969,0,0,1,2081.276-111.719Z" transform="translate(-1927.444 117.13)" fill="#63a3d8"></path></g></g></svg> 